<svg id="Layer_1" data-name="Layer 1" xmlns="http://www.w3.org/2000/svg" viewBox="0 0 554.41 638.17"><path d="M369.92,676.51H305.39v-1l.55-.32a6.16,6.16,0,0,0,2.22-2.93,8.79,8.79,0,0,0,.55-3.33q0-6.65-7.36-17L227.16,547.68l-18,19.79v88q.72,10,4.44,15.05c1.79,2.53,3.67,4,5.62,4.51l1,.32v1H167.14v-1l1-.32c1.9-.48,3.77-2,5.62-4.43q3.65-4.92,4.36-15V468.73Q177.51,459,174,454q-2.85-4-5.78-4.83l-1.11-.32v-.95h53.13v.95l-1,.24c-2,.52-3.83,2-5.62,4.51q-3.72,5.14-4.44,15.12V562.8l82-90.26q6.81-7.77,9.34-12.6a14.89,14.89,0,0,0,2.06-6.72c0-.11,0-.4,0-.88a3.63,3.63,0,0,0-.48-1.5,4.33,4.33,0,0,0-1-1.23,3.36,3.36,0,0,0-.91-.59l-.39-.16v-.95H331.2v.95l-3.09,1a65.25,65.25,0,0,0-8.23,3.64,87.43,87.43,0,0,0-11.48,7.21,85.61,85.61,0,0,0-12.91,11.8l-47,51.62L339.44,652a74,74,0,0,0,10.69,11.56,71.68,71.68,0,0,0,9.85,7.24,48.66,48.66,0,0,0,7.25,3.69l2.69,1.11Z" transform="translate(-167.14 -130.83)"/><path d="M418.19,676.51q-16,0-25-6.66Q383,662.09,383,646.34c0-1.38.06-2.8.16-4.28q1.51-16.23,15.52-28.11,11.16-9.35,29.62-15.52a168.7,168.7,0,0,1,34.84-7.68V566.44q0-10.44-2.54-15.79a13.81,13.81,0,0,0-7.68-7.33,36.5,36.5,0,0,0-13-2,52,52,0,0,0-7.61,1.19,19.76,19.76,0,0,0-7.72,7.56,49.5,49.5,0,0,0-4.79,10.73,70.25,70.25,0,0,0-2.37,9.66l-.71,4-19-7.13A43.94,43.94,0,0,1,415.81,546a53.33,53.33,0,0,1,28.91-8A55.49,55.49,0,0,1,463.09,541l.79.23a51.34,51.34,0,0,1,15.2,8.71l3.25,3a4.4,4.4,0,0,1,.71.72,37.91,37.91,0,0,1,4.51,5.62l.56.95a28.81,28.81,0,0,1,3,5.62A39.09,39.09,0,0,1,494,576.42a9.32,9.32,0,0,0,.15,1.74V651.8q0,11.81,3.88,17.9c1.91,2.9,3.94,4.7,6.1,5.38l1.11.32v1H482.56a18.85,18.85,0,0,1-9.7-2.58,19.51,19.51,0,0,1-7-6.92,168.12,168.12,0,0,1-26.69,7.36A110.35,110.35,0,0,1,418.19,676.51Zm20.35-6.26a39.58,39.58,0,0,0,6.89-.63,157.65,157.65,0,0,0,19-5.63,18.9,18.9,0,0,1-1.34-7.2V593.92q-7.36.87-18.85,3.33-9.11,2.44-16.39,11Q417.8,620,417.79,642c0,1.9.06,3.88.16,5.94Q419.38,670.25,438.54,670.25Z" transform="translate(-167.14 -130.83)"/><path d="M578.34,676.82H525.29v-1l1-.24c2-.58,3.83-2.08,5.62-4.51q3.72-5.07,4.44-15V486.79a59.1,59.1,0,0,0-1.67-15.52,17.18,17.18,0,0,0-3.24-7,5.48,5.48,0,0,0-2.77-1.9l-.48-.08V460.9q4.35,0,8.16-.24,14.49-1,22.56-5.07,5.94-3,7.84-6.1l.64-1.1V656a39.28,39.28,0,0,0,1.58,9.26,20.79,20.79,0,0,0,2.77,5.82,13.14,13.14,0,0,0,3.13,3.21,11.21,11.21,0,0,0,2.49,1.34l1,.24Z" transform="translate(-167.14 -130.83)"/><path d="M634.53,676.51q-16,0-25-6.66-10.21-7.76-10.22-23.51c0-1.38.05-2.8.16-4.28Q601,625.83,615,614q11.16-9.35,29.61-15.52a169,169,0,0,1,34.84-7.68V566.44q0-10.44-2.53-15.79a13.81,13.81,0,0,0-7.68-7.33,36.52,36.52,0,0,0-13-2,51.84,51.84,0,0,0-7.6,1.19,19.69,19.69,0,0,0-7.72,7.56,49.5,49.5,0,0,0-4.79,10.73,70.25,70.25,0,0,0-2.37,9.66l-.72,4-19-7.13A43.94,43.94,0,0,1,632.15,546a53.32,53.32,0,0,1,28.9-8A55.4,55.4,0,0,1,679.42,541l.8.23a51.34,51.34,0,0,1,15.2,8.71l3.24,3a4.09,4.09,0,0,1,.72.72,37.91,37.91,0,0,1,4.51,5.62l.56.95a28.18,28.18,0,0,1,3,5.62,38.37,38.37,0,0,1,2.85,10.53,9.28,9.28,0,0,0,.16,1.74V651.8q0,11.81,3.88,17.9c1.9,2.9,3.94,4.7,6.1,5.38l1.11.32v1H698.9a18.83,18.83,0,0,1-9.7-2.58,19.51,19.51,0,0,1-7-6.92,168.12,168.12,0,0,1-26.69,7.36A110.35,110.35,0,0,1,634.53,676.51Zm20.35-6.26a39.67,39.67,0,0,0,6.89-.63,157.65,157.65,0,0,0,19-5.63,18.91,18.91,0,0,1-1.35-7.2V593.92q-7.35.87-18.84,3.33-9.11,2.44-16.39,11Q634.13,620,634.13,642c0,1.9.06,3.88.16,5.94Q635.72,670.25,654.88,670.25Z" transform="translate(-167.14 -130.83)"/><path d="M324.75,749.72c-2.34,12.32-12.95,18.66-23.42,18.66-11.29,0-22.45-7.44-22.45-22.73,0-14.53,8.89-26.24,23.83-26.24,5.72,0,11.92,1.86,16.67,1.86a11,11,0,0,0,3.44-.48c-.55,4.13-3,5.44-6.27,5.44-5.37,0-13.15-3.45-19.28-3.45-8.4,0-15.22,5.1-15.22,16.05,0,17.15,10.54,24.66,21.28,24.66,8.75,0,17.7-5,21.22-13.84Z" transform="translate(-167.14 -130.83)"/><path d="M369.45,759.77c0,5.1,1.44,8.4,7.37,8.4h-8.41c-3.58,0-4.47-1.72-4.47-5.16v-5c-1.72,7.16-8.27,10.82-14.26,10.82-5.65,0-10.74-3.24-10.74-9.79,0-14.94,24.45-12.74,25-19.28-.28-5.1-2.83-7.65-9.65-7.65a64.21,64.21,0,0,0-10.88,1.31l-.14-.62c5.45-1.1,10.34-2.07,14.4-2.07,7.23,0,11.78,3.11,11.78,14.26Zm-5.51-18c-5.58,5.1-19.43,3.38-19.43,15.09,0,6.13,4.27,9.16,8.82,9.16,5.1,0,10.61-3.93,10.61-11.71Z" transform="translate(-167.14 -130.83)"/><path d="M422.2,759.77c0,5.1,1.45,8.4,7.3,8.4h-8.4c-3.58,0-4.41-1.72-4.41-5.23v-18.8c0-8-5-12.06-10.12-12.06-5.31,0-10.68,4.34-10.68,13v14.67c0,5.1,1.52,8.4,7.37,8.4H390.45V739.38c0-5.09-1.45-8.4-7.37-8.4h12.81V739a13.4,13.4,0,0,1,12.95-8.82c6.68,0,13.29,4.55,13.29,13.92h.07Z" transform="translate(-167.14 -130.83)"/><path d="M477,759.77c0,5.1,1.44,8.4,7.37,8.4H476c-3.58,0-4.47-1.72-4.47-5.23v-4.55c-1.93,7-7.79,10.41-14,10.41-8.26,0-17-6.27-17-18.4,0-14.32,9.78-20.25,18.8-20.25,4.83,0,9.44,1.73,12.2,4.69v-15.5c0-5.1-1.45-8.4-7.37-8.4H477Zm-5.51-15.15c0-8.82-5.79-13.36-11.78-13.36-6.48,0-13.29,5.37-13.29,16.8,0,12.74,6.81,18.53,13.29,18.53,6,0,11.78-4.89,11.78-13.64Z" transform="translate(-167.14 -130.83)"/><path d="M531.71,754.26c-2,9.85-10.13,14.74-18.12,14.74-9.09,0-18.11-6.27-18.11-18.94,0-13.43,9-19.42,17.63-19.42,7.92,0,15.57,5,15.57,14.05,0,7.3-6.61,11.09-13.71,11.09-5.78,0-12-2.48-15.29-7.51,1,11.43,8.2,16.19,15.57,16.19,6.75,0,13.64-3.93,16.25-10.27ZM511.6,731.67c-6,0-12.12,4.48-12.06,14.81,2.07,3.79,7.72,6.27,12.95,6.27,5.51,0,10.61-2.76,10.61-9.65A11.23,11.23,0,0,0,511.6,731.67Z" transform="translate(-167.14 -130.83)"/><path d="M553.19,759.77c0,5.1,1.52,8.4,7.38,8.4H547.75V719.34c0-5.1-1.44-8.4-7.37-8.4h12.81Z" transform="translate(-167.14 -130.83)"/><path d="M602.44,759.77c0,5.1,1.45,8.4,7.37,8.4h-8.4c-3.59,0-4.48-1.72-4.48-5.16v-5c-1.72,7.16-8.27,10.82-14.26,10.82-5.65,0-10.74-3.24-10.74-9.79,0-14.94,24.45-12.74,25-19.28-.28-5.1-2.83-7.65-9.64-7.65a64.19,64.19,0,0,0-10.89,1.31l-.13-.62c5.44-1.1,10.33-2.07,14.39-2.07,7.23,0,11.78,3.11,11.78,14.26Zm-5.51-18c-5.58,5.1-19.42,3.38-19.42,15.09,0,6.13,4.27,9.16,8.81,9.16,5.1,0,10.61-3.93,10.61-11.71Z" transform="translate(-167.14 -130.83)"/><path d="M489,283.31c-2.53-2.91-5.28-5.71-8.18-8.48-7.26-6.95-15-13.7-20.79-22-8-11.26-10.5-26-10.12-39.58-.06,2.15-4.95,8.5-6.06,10.5a44.43,44.43,0,0,0-5.32,15.94c-2,16.41,6.58,33.35,18.19,44.53,7,6.73,15.61,11.6,22.25,18.75a49.41,49.41,0,0,1,13.19,31.22c.45,12.55-2.93,24.48-13.69,31.78-9.06,6.14-20.9,8.7-31.73,7.54-18.35-2-34-14.38-41.44-31.08A55.75,55.75,0,0,1,409.74,290a55.18,55.18,0,0,0-12.81,45.19c4.38,25.41,27.49,45.37,53.34,45.58,19,.16,37.18-9.39,47.08-24,9.48-14,9.76-34.44,5-50.2C499.62,297.45,494.89,290.08,489,283.31Z" transform="translate(-167.14 -130.83)"/><path d="M475.58,173.11s-28.25,21.85-6.4,57.49c6.8,8.73,15.92,15.53,22.88,24.2,7.61,9.5,9.89,20.41,5.15,31.93-2.54,6.19-6.53,11.66-10.64,16.93,1.44-1.84,5.75-3.58,7.83-5.3a49,49,0,0,0,7.51-7.79,51.77,51.77,0,0,0,9.35-20.09c3.7-16.23-.12-31.69-12.69-43C480.37,211.09,469.75,209.27,475.58,173.11Z" transform="translate(-167.14 -130.83)"/><path d="M399.16,268.89c-.24-1.05.52-1.87,1.06-2.6q4.61-6.27,9.36-12.41a3.81,3.81,0,0,1,1.76-1.26,1.92,1.92,0,0,1,2.2.95,2.15,2.15,0,0,1-.12,2.62c-1.58,2.12-3.18,4.22-4.78,6.34l-5,6.6a4,4,0,0,1-1.35,1.28,2,2,0,0,1-1.49,0,2.88,2.88,0,0,1-1.12-.52A2,2,0,0,1,399.16,268.89Z" transform="translate(-167.14 -130.83)"/><path d="M396,228.69a9.06,9.06,0,0,1-1,.24q-8,1.13-16,2.23c-1.65.23-2.83-.57-3-2a2.17,2.17,0,0,1,1.89-2.39q8.43-1.23,16.87-2.37a2.15,2.15,0,0,1,2.42,1.56A2.29,2.29,0,0,1,396,228.69Z" transform="translate(-167.14 -130.83)"/><path d="M429.43,179.42c-.06-.27-.19-.7-.25-1.14q-1.12-7.91-2.22-15.83c-.23-1.66.44-2.75,1.8-3s2.41.67,2.65,2.35q1.14,8,2.24,15.94c.22,1.59-.45,2.67-1.76,2.9A2.23,2.23,0,0,1,429.43,179.42Z" transform="translate(-167.14 -130.83)"/><path d="M404.37,197a2.14,2.14,0,0,1-2.39-.21c-4.53-3.4-9.06-6.8-13.56-10.25a2.13,2.13,0,0,1-.36-3.17,2.24,2.24,0,0,1,3.29-.2L403,192c.6.45,1.22.86,1.78,1.36A2.26,2.26,0,0,1,404.37,197Z" transform="translate(-167.14 -130.83)"/><path d="M387.65,205.89a5.29,5.29,0,0,1,1.51,0c2.44.57,4.85,1.21,7.26,1.87a2.25,2.25,0,1,1-1.11,4.34c-2.42-.61-4.84-1.25-7.25-1.9a2.17,2.17,0,0,1-1.78-1.92A2.33,2.33,0,0,1,387.65,205.89Z" transform="translate(-167.14 -130.83)"/><path d="M411.92,181.66c-.65-1.09-1.32-2.17-1.94-3.27a2.23,2.23,0,1,1,3.78-2.36c1.39,2.21,2.73,4.46,4,6.73a2.23,2.23,0,1,1-3.89,2.16C413.2,183.85,412.57,182.75,411.92,181.66Z" transform="translate(-167.14 -130.83)"/><path d="M396.19,242.69c1.05-.63,2.1-1.27,3.17-1.89a2.27,2.27,0,0,1,3.31.67,2.25,2.25,0,0,1-1,3.15q-3.16,1.9-6.36,3.77a2.3,2.3,0,0,1-3.32-.67c-.67-1.15-.26-2.4,1.07-3.21,1-.62,2-1.22,3.08-1.83Z" transform="translate(-167.14 -130.83)"/><path d="M444,409.39h-7.74a87.75,87.75,0,0,1-87.66-87.66V218.49a87.75,87.75,0,0,1,87.66-87.66H444a87.76,87.76,0,0,1,87.66,87.66V321.73A87.76,87.76,0,0,1,444,409.39Zm-7.74-277.14A86.33,86.33,0,0,0,350,218.49V321.73A86.33,86.33,0,0,0,436.23,408H444a86.33,86.33,0,0,0,86.23-86.24V218.49A86.33,86.33,0,0,0,444,132.25Z" transform="translate(-167.14 -130.83)"/><path d="M452.46,409.39h-7.74a87.75,87.75,0,0,1-87.66-87.66V218.49a87.75,87.75,0,0,1,87.66-87.66h7.74a87.76,87.76,0,0,1,87.66,87.66V321.73A87.76,87.76,0,0,1,452.46,409.39Zm-7.74-277.14a86.34,86.34,0,0,0-86.24,86.24V321.73A86.34,86.34,0,0,0,444.72,408h7.74a86.33,86.33,0,0,0,86.23-86.24V218.49a86.33,86.33,0,0,0-86.23-86.24Z" transform="translate(-167.14 -130.83)"/></svg>